<?xml version="1.0" encoding="UTF-8" standalone="no"?>
<svg
   xmlns:dc="http://purl.org/dc/elements/1.1/"
   xmlns:cc="http://creativecommons.org/ns#"
   xmlns:rdf="http://www.w3.org/1999/02/22-rdf-syntax-ns#"
   xmlns:svg="http://www.w3.org/2000/svg"
   xmlns="http://www.w3.org/2000/svg"
   xmlns:sodipodi="http://sodipodi.sourceforge.net/DTD/sodipodi-0.dtd"
   xmlns:inkscape="http://www.inkscape.org/namespaces/inkscape"
   width="177.4472mm"
   height="180.60815mm"
   viewBox="0 0 177.4472 180.60815"
   version="1.1"
   id="svg8"
   inkscape:version="1.0.2 (e86c870879, 2021-01-15, custom)"
   sodipodi:docname="RunJavaScriptOnKeyPress_LogoSvg2.svg">
  <title
     id="title30">RunJavaScriptOnKeyPress SVG Logo</title>
  <defs
     id="defs2" />
  <sodipodi:namedview
     id="base"
     pagecolor="#ffffff"
     bordercolor="#666666"
     borderopacity="1.0"
     inkscape:pageopacity="0.0"
     inkscape:pageshadow="2"
     inkscape:zoom="0.48188921"
     inkscape:cx="513.2485"
     inkscape:cy="449.38107"
     inkscape:document-units="mm"
     inkscape:current-layer="layer1"
     inkscape:document-rotation="0"
     showgrid="false"
     inkscape:window-width="1920"
     inkscape:window-height="1017"
     inkscape:window-x="-8"
     inkscape:window-y="-8"
     inkscape:window-maximized="1" />
  <metadata
     id="metadata5">
    <rdf:RDF>
      <cc:Work
         rdf:about="">
        <dc:format>image/svg+xml</dc:format>
        <dc:type
           rdf:resource="http://purl.org/dc/dcmitype/StillImage" />
        <dc:title>RunJavaScriptOnKeyPress SVG Logo</dc:title>
      </cc:Work>
    </rdf:RDF>
  </metadata>
  <g
     inkscape:label="Layer 1"
     inkscape:groupmode="layer"
     id="layer1"
     transform="translate(-143.74288,-32.013739)">
    <path
       style="fill:#1f1f1f;fill-opacity:1;stroke-width:0.352778"
       d="m 154.93534,211.77707 c -5.17704,-1.9232 -8.68906,-5.53979 -10.5416,-10.85546 -0.62491,-1.79313 -0.65086,-4.92676 -0.65086,-78.59676 0,-73.67 0.0259,-76.803627 0.65086,-78.596761 1.89994,-5.451686 5.59274,-9.151588 10.98603,-11.007151 2.03193,-0.699087 2.91614,-0.707199 77.08672,-0.707199 74.17057,0 75.05478,0.0081 77.08671,0.707199 5.39329,1.855563 9.08609,5.555465 10.98603,11.007151 0.62491,1.793134 0.65086,4.926761 0.65086,78.596761 0,73.67 -0.026,76.80363 -0.65086,78.59676 -1.89994,5.45169 -5.59274,9.15159 -10.98603,11.00715 -2.03265,0.69934 -2.89151,0.707 -77.23014,0.68882 l -75.17463,-0.0184 z m 135.98559,-18.72128 c 5.7804,-1.71659 10.28212,-6.65149 11.38824,-12.48409 0.49622,-2.61651 0.49622,-113.87718 0,-116.4937 -1.10612,-5.83259 -5.60784,-10.767495 -11.38824,-12.484088 -1.55607,-0.462103 -9.06121,-0.530173 -58.45444,-0.530173 -49.39325,0 -56.89838,0.06807 -58.45445,0.530173 -5.7804,1.716593 -10.28212,6.651498 -11.38824,12.484088 -0.49622,2.61652 -0.49622,113.87719 0,116.4937 0.797,4.2026 3.32851,8.00105 6.92204,10.38629 4.22287,2.80298 -0.95592,2.58773 62.76842,2.609 49.56654,0.0165 57.04932,-0.0487 58.60667,-0.5112 z m -116.30999,-6.90521 c -2.24665,-1.01486 -4.11782,-2.97469 -4.94116,-5.17527 -0.69183,-1.84908 -0.70329,-2.80455 -0.70329,-58.65046 0,-55.8459 0.0115,-56.80138 0.70329,-58.65045 0.82334,-2.20059 2.69451,-4.16042 4.94116,-5.17528 1.57469,-0.71133 2.04112,-0.71711 57.85555,-0.71711 55.81442,0 56.28084,0.006 57.85555,0.71711 2.24664,1.01486 4.11781,2.97469 4.94115,5.17528 0.69183,1.84907 0.70329,2.80455 0.70329,58.65045 0,55.84591 -0.0115,56.80138 -0.70329,58.65046 -0.82334,2.20058 -2.69451,4.16041 -4.94115,5.17527 -1.57471,0.71133 -2.04113,0.71711 -57.85555,0.71711 -55.81443,0 -56.28086,-0.006 -57.85555,-0.71711 z m 35.79038,-43.40294 c 1.7833,-0.49511 3.54007,-2.25188 4.03517,-4.03517 0.26925,-0.96982 0.38777,-12.27338 0.38914,-37.11331 l 0.002,-35.71875 h -5.82083 -5.82084 v 33.69028 33.69027 h -6.52642 -6.52639 v -8.11388 -8.11389 h -5.64444 -5.64445 v 10.7946 c 0,11.44968 0.0986,12.21641 1.76552,13.72492 1.57875,1.42876 2.85149,1.55453 15.87337,1.56858 8.05032,0.009 13.02173,-0.12478 13.91817,-0.37365 z m 47.75411,-0.49084 c 0.644,-0.38806 1.51712,-1.26118 1.94028,-1.94028 0.75193,-1.20671 0.76939,-1.51077 0.76939,-13.40555 v -12.17084 l -0.88195,-1.46131 c -0.48507,-0.80372 -6.23976,-6.50216 -12.78819,-12.6632 L 235.28871,89.41374 v -7.00417 -7.00416 h 7.0484 7.04839 l 0.0953,7.32014 0.0953,7.32014 5.73264,0.0969 5.73264,0.0969 v -9.81176 c 0,-9.47972 -0.0269,-9.86434 -0.79375,-11.36518 -1.60016,-3.13157 -0.82096,-2.99245 -17.39182,-3.10522 -14.12226,-0.0961 -14.65384,-0.0755 -16.0212,0.62211 -0.92766,0.47325 -1.68904,1.23577 -2.21279,2.21607 -0.77935,1.45874 -0.79849,1.75248 -0.79849,12.25428 0,9.51641 0.0734,10.94986 0.63497,12.40513 0.54102,1.40197 2.43305,3.34975 12.78819,13.16505 l 12.15322,11.51964 v 7.56065 7.56064 h -7.05555 -7.05556 v -7.76111 -7.76111 h -5.82083 -5.82083 l 0.0154,9.43681 c 0.008,5.19024 0.14903,10.12866 0.31239,10.97427 0.39131,2.02554 1.30928,3.22443 3.22068,4.2063 1.56475,0.8038 1.58571,0.80474 15.67796,0.70555 13.38914,-0.0942 14.17101,-0.13542 15.282,-0.80487 z"
       id="path24" />
  </g>
</svg>
